<?xml version="1.0" standalone="no"?>
<!DOCTYPE svg PUBLIC "-//W3C//DTD SVG 20010904//EN"
 "http://www.w3.org/TR/2001/REC-SVG-20010904/DTD/svg10.dtd">
<svg version="1.0" xmlns="http://www.w3.org/2000/svg"
 width="700.000000pt" height="700.000000pt" viewBox="0 0 700.000000 700.000000"
 preserveAspectRatio="xMidYMid meet">
<metadata>
Created by potrace 1.14, written by Peter Selinger 2001-2017
</metadata>
<g transform="translate(0.000000,700.000000) scale(0.100000,-0.100000)"
fill="#000000" stroke="none">
<path d="M575 5676 c-29 -29 -27 -5 -27 -333 1 -155 5 -249 12 -262 6 -11 24
-24 40 -28 17 -5 363 -8 770 -8 l740 1 0 -1926 0 -1927 25 -23 24 -23 313 0
c172 -1 325 2 339 6 14 4 31 18 37 32 9 20 12 499 12 1943 l0 1917 265 1 c146
0 266 -3 266 -6 1 -3 2 -867 3 -1920 1 -1815 2 -1917 19 -1943 10 -15 27 -28
40 -28 12 -1 157 -2 322 -3 320 -2 346 1 361 46 4 13 8 480 8 1038 l1 1015
848 1 848 0 22 22 c21 22 22 29 25 301 3 263 2 279 -17 302 l-19 24 -854 5
-853 5 -1 568 0 567 25 1 c14 1 439 2 944 3 l919 1 22 26 c22 26 23 30 21 300
-1 151 -5 281 -9 290 -4 9 -17 21 -29 26 -15 7 -928 11 -2730 12 l-2707 2 -25
-25z"/>
</g>
</svg>
